{
  "title": "John Carter (2012) DVDRip XviD-MAX",
  "uid": 7275730,
  "size": 1399421092,
  "categoryP": "video",
  "categoryS": "movies",
  "magnet": "?xt=urn:btih:18634eba9107fdaf842f756af3bf3a97c1143731&amp;dn=John+Carter+%282012%29+DVDRip+XviD-MAX&amp;tr=udp%3A%2F%2Ftracker.openbittorrent.com%3A80&amp;tr=udp%3A%2F%2Fopen.demonii.com%3A1337&amp;tr=udp%3A%2F%2Ftracker.coppersurfer.tk%3A6969&amp;tr=udp%3A%2F%2Fexodus.desync.com%3A6969",
  "seeders": 72,
  "leechers": 3,
  "uploader": "extremezone",
  "files": -1,
  "time": 1337274428,
  "description": "Screens:\n &lt;a href=&quot;\nhttp://www.postimg.com/image/70000/photo-69883.jpg&quot; rel=&quot;nofollow&quot; target=&quot;_NEW&quot;&gt;\nhttp://www.postimg.com/image/70000/photo-69883.jpg&lt;/a&gt; &lt;a href=&quot;\nhttp://www.postimg.com/image/70000/photo-69884.jpg&quot; rel=&quot;nofollow&quot; target=&quot;_NEW&quot;&gt;\nhttp://www.postimg.com/image/70000/photo-69884.jpg&lt;/a&gt; &lt;a href=&quot;\nhttp://www.postimg.com/image/70000/photo-69885.jpg&quot; rel=&quot;nofollow&quot; target=&quot;_NEW&quot;&gt;\nhttp://www.postimg.com/image/70000/photo-69885.jpg&lt;/a&gt; &lt;a href=&quot;\nhttp://www.postimg.com/image/70000/photo-69886.jpg&quot; rel=&quot;nofollow&quot; target=&quot;_NEW&quot;&gt;\nhttp://www.postimg.com/image/70000/photo-69886.jpg&lt;/a&gt;\n\nScreenCaps:\n &lt;a href=&quot;\nhttp://www.postimg.com/image/70000/photo-69891.jpg&quot; rel=&quot;nofollow&quot; target=&quot;_NEW&quot;&gt;\nhttp://www.postimg.com/image/70000/photo-69891.jpg&lt;/a&gt;\n\nJohn Carter (2012) DVDRip XviD-MAX\nFormat                                   : AVI\nFormat/Info                              : Audio Video Interleave\nFormat profile                           : OpenDML\nFormat settings                          : rec\nFile size                                : 1.30 GiB\nDuration                                 : 2h 12mn\nOverall bit rate                         : 1 406 Kbps\nWriting application                      : VirtualDubMod 1.5.10.2 (build 2542/release)\nWriting library                          : VirtualDubMod build 2542/release\nOriginal source form                     : MAX TORRENTZ\nCopyright                                : SIGISMUNT\n\nVideo\nID                                       : 0\nFormat                                   : MPEG-4 Visual\nFormat profile                           : Advanced Simple@L5\nFormat settings, BVOP                    : 2\nFormat settings, QPel                    : No\nFormat settings, GMC                     : No warppoints\nFormat settings, Matrix                  : Default (MPEG)\nCodec ID                                 : XVID\nCodec ID/Hint                            : XviD\nDuration                                 : 2h 12mn\nBit rate                                 : 1 081 Kbps\nWidth                                    : 608 pixels\nHeight                                   : 256 pixels\nDisplay aspect ratio                     : 2.40:1\nFrame rate                               : 23.976 fps\nColor space                              : YUV\nChroma subsampling                       : 4:2:0\nBit depth                                : 8 bits\nScan type                                : Progressive\nCompression mode                         : Lossy\nBits/(Pixel*Frame)                       : 0.290\nStream size                              : 1 021 MiB (77%)\nWriting library                          : XviD 64\n\nAudio\nID                                       : 1\nFormat                                   : AC-3\nFormat/Info                              : Audio Coding 3\nMode extension                           : CM (complete main)\nFormat settings, Endianness              : Big\nCodec ID                                 : 2000\nDuration                                 : 2h 12mn\nBit rate mode                            : Constant\nBit rate                                 : 320 Kbps\nChannel(s)                               : 6 channels\nChannel positions                        : Front: L C R, Side: L R, LFE\nSampling rate                            : 48.0 KHz\nBit depth                                : 16 bits\nCompression mode                         : Lossy\nStream size                              : 302 MiB (23%)\nAlignment                                : Aligned on interleaves\nInterleave, duration                     : 64 ms (1.53 video frames)\nInterleave, preload duration             : 192 ms\n\nSource: DVD (perfect a/v/sync quality,sample included)\nThis torrent is not seedbox supported,please seed it to the MAX",
  "parsed": {
    "xt": "urn:btih:18634eba9107fdaf842f756af3bf3a97c1143731",
    "dn": "John Carter (2012) DVDRip XviD-MAX",
    "tr": [
      "udp://exodus.desync.com:6969",
      "udp://open.demonii.com:1337",
      "udp://tracker.coppersurfer.tk:6969",
      "udp://tracker.openbittorrent.com:80"
    ],
    "infoHash": "18634eba9107fdaf842f756af3bf3a97c1143731",
    "infoHashBuffer": {
      "type": "Buffer",
      "data": [
        24,
        99,
        78,
        186,
        145,
        7,
        253,
        175,
        132,
        47,
        117,
        106,
        243,
        191,
        58,
        151,
        193,
        20,
        55,
        49
      ]
    },
    "name": "John Carter (2012) DVDRip XviD-MAX",
    "announce": [
      "udp://exodus.desync.com:6969",
      "udp://open.demonii.com:1337",
      "udp://tracker.coppersurfer.tk:6969",
      "udp://tracker.openbittorrent.com:80"
    ],
    "urlList": []
  },
  "previous": 7,
  "peers": 6,
  "last_updated": "2016-12-26T17:32:37.391Z"
}